<svg width="228" height="228" viewBox="0 0 228 228" fill="none" xmlns="http://www.w3.org/2000/svg">
<path fill-rule="evenodd" clip-rule="evenodd" d="M187.661 26.9912C188.252 27.4918 188.838 27.9983 189.418 28.5105V105.773L140.221 105.18V40.5721C156.211 37.1455 172.201 32.6186 187.661 26.9912ZM181.58 22.1813C167.609 27.2029 153.704 30.9622 140.221 33.4591V3.03004C155.403 6.60376 169.415 13.2127 181.58 22.1813ZM137.85 2.49872V34.0519C120.66 37.6083 104.656 39.3866 89.8379 39.9793V7.97149C106.061 7.39215 121.717 5.68013 136.807 2.28189C137.155 2.35258 137.503 2.42486 137.85 2.49872ZM114.504 0.00109216C114.336 0.000364303 114.168 0 114 0C106.904 0 99.9594 0.648333 93.2223 1.88899C100.069 1.53491 107.163 0.924409 114.504 0.00109216ZM191.196 30.1136C212.054 49.3181 225.732 76.2025 227.743 106.281L191.196 105.773V30.1136ZM227.945 110.433L191.196 109.922V172.159C198.162 171.857 205.282 171.554 212.557 171.33C222.375 154.488 228 134.901 228 114C228 112.807 227.982 111.617 227.945 110.433ZM209.965 175.563C203.588 175.775 197.332 176.042 191.196 176.309V197.886C198.36 191.29 204.677 183.789 209.965 175.563ZM137.85 225.501C130.158 227.139 122.18 228 114 228C84.6464 228 57.884 216.906 37.677 198.682V197.647C41.8262 196.462 46.5681 195.276 51.31 194.091C72.6485 189.349 101.693 184.014 137.85 179.865V225.501ZM189.418 199.489C175.592 211.696 158.781 220.601 140.221 224.97V180.458C155.632 178.679 171.636 177.494 189.418 176.901V199.489ZM32.7961 194.012C17.4387 178.427 6.534 158.443 2.14467 136.121C11.1709 133.25 22.764 129.47 34.7133 125.333V193.498C34.068 193.67 33.429 193.842 32.7961 194.012ZM1.32713 131.45C10.7939 128.246 22.7536 124.418 34.7133 120.591V43.5357C31.4845 43.1631 28.3598 42.7646 25.3337 42.34C9.49002 61.9192 0 86.8514 0 114C0 119.933 0.453289 125.761 1.32713 131.45ZM29.9424 36.9905C31.5178 37.2094 33.1086 37.4158 34.7133 37.6084V32.0876C33.0748 33.6739 31.4837 35.309 29.9424 36.9905ZM37.0843 29.8564V38.2011C37.536 38.2764 37.9781 38.3516 38.4131 38.4257C41.4031 38.9348 44.0561 39.3865 47.1608 39.3865C58.4228 40.572 71.463 41.1648 85.0959 40.5721V8.56419H75.6122C73.987 8.56419 72.3443 8.54679 70.6902 8.51496C58.2273 13.6374 46.8722 20.9043 37.0843 29.8564ZM137.85 160.305H104.656V179.865C108.607 179.401 112.741 178.845 117.021 178.269C123.656 177.376 130.644 176.437 137.85 175.716V160.305ZM104.656 158.526H137.85V109.922L104.656 109.329V158.526ZM89.8379 46.4994V104.587H137.85V40.5721C121.846 44.1285 105.842 45.9067 89.8379 46.4994ZM42.1222 45.3139C40.6405 45.1657 39.1588 45.0175 37.677 44.7212H37.0843V120.591C49.6728 116.777 62.0158 112.717 71.7432 109.517C77.1306 107.745 81.7157 106.237 85.0959 105.18V47.0921H75.6122C66.1284 47.0921 56.0518 46.4994 46.5681 45.9067C45.0862 45.6103 43.6042 45.4621 42.1222 45.3139ZM102.285 108.737H88.0596C79.1686 111.7 58.4228 118.22 37.677 124.74V157.934H102.285V108.737ZM102.285 160.305H37.677V192.905C39.9903 192.245 42.3034 191.768 44.7193 191.27C46.6368 190.875 48.619 190.467 50.7172 189.942C64.3501 186.978 82.1323 183.421 102.285 180.458V160.305ZM140.221 175.716C155.632 174.53 172.228 173.345 189.418 172.159V109.922L140.221 109.329V175.716Z" fill="#C7DBF8"/>
<path d="M115.678 34.0126C90.2742 33.4248 69.5966 53.4125 69.0059 78.1033C68.4151 103.382 112.724 151 112.724 151C112.724 151 159.396 105.734 159.987 80.4549C160.578 55.1762 141.082 34.6005 115.678 34.0126ZM113.906 93.3881C100.908 92.8003 90.2742 82.2185 90.865 69.2852C91.4558 56.3519 102.09 45.7702 115.087 46.3581C128.085 46.9459 138.719 57.5277 138.128 70.4609C138.128 83.3942 127.494 93.976 113.906 93.3881Z" fill="#D33924"/>
</svg>
